<?xml version="1.0" standalone="no"?>
<!DOCTYPE svg PUBLIC "-//W3C//DTD SVG 20010904//EN"
 "http://www.w3.org/TR/2001/REC-SVG-20010904/DTD/svg10.dtd">
<svg version="1.0" xmlns="http://www.w3.org/2000/svg"
 width="512.000000pt" height="512.000000pt" viewBox="0 0 512.000000 512.000000"
 preserveAspectRatio="xMidYMid meet">
<metadata>
Created by potrace 1.11, written by Peter Selinger 2001-2013
</metadata>
<g transform="translate(0.000000,512.000000) scale(0.100000,-0.100000)"
fill="#000000" stroke="none">
<path d="M0 2560 l0 -2560 2560 0 2560 0 0 2560 0 2560 -2560 0 -2560 0 0
-2560z m2957 283 c-3 -1254 2 -1165 -78 -1332 -80 -164 -245 -289 -452 -341
-177 -44 -415 -49 -612 -12 l-90 18 3 29 c1 17 18 149 37 295 19 146 35 267
35 270 0 3 73 5 163 5 161 0 164 0 205 27 22 15 54 49 69 75 l28 48 3 1018 2
1017 345 0 346 0 -4 -1117z"/>
</g>
</svg>
